<?xml version="1.0" encoding="UTF-8" standalone="no"?>
<!-- Created with Inkscape (http://www.inkscape.org/) -->

<svg
   width="512.00037"
   height="392.3634"
   viewBox="0 0 512.00037 392.3634"
   version="1.1"
   id="svg1"
   xmlns="http://www.w3.org/2000/svg"
   xmlns:svg="http://www.w3.org/2000/svg">
  <style>
   @media(prefers-color-scheme: dark) {
    path {
     fill: #fff;
    }
   }
  </style>
  <defs
     id="defs1" />
  <g
     id="layer1"
     transform="translate(1.6241263e-4,-59.818291)">
    <path
       id="path38"
       style="color:#000000;stroke-linejoin:round;-inkscape-stroke:none"
       d="m 94.091814,59.818337 a 17.902289,17.902289 0 0 0 -0.205078,0.002 c -6.319604,0.07242 -12.615326,0.780168 -18.792969,2.113282 a 17.902289,17.902289 0 0 0 -0.259766,0.05859 c -4.561565,1.055763 -9.038657,2.450463 -13.392578,4.171874 l 1.09375,-0.392578 c -1.461055,0.470564 -2.909414,0.976178 -4.345703,1.517578 a 17.902289,17.902289 0 0 0 -0.853515,0.347657 c -4.929221,2.153708 -9.664869,4.725247 -14.154297,7.6875 l 0.519531,-0.328125 c -0.610007,0.373076 -1.21706,0.751818 -1.81836,1.138672 a 17.902289,17.902289 0 0 0 -0.40625,0.269531 c -4.816935,3.288301 -9.311907,7.025421 -13.4375,11.146484 a 17.902289,17.902289 0 0 0 -0.05078,0.03906 c -0.02268,0.02236 -0.04376,0.04598 -0.06641,0.06836 -0.01564,0.01567 -0.0332,0.02924 -0.04883,0.04492 a 17.902289,17.902289 0 0 0 -0.01367,0.01953 C 10.246479,105.15469 0.22063322,128.85094 1.669403e-5,153.62693 a 17.902289,17.902289 0 0 0 0,0.16016 v 204.42969 a 17.902289,17.902289 0 0 0 0,0.002 C 0.0030158,379.48167 7.232292,400.12431 20.494158,416.75193 a 17.902289,17.902289 0 0 0 0.002,0.002 l 0.002,0.002 c 17.846185,22.3768 44.955587,35.42297 73.589844,35.42578 a 17.902289,17.902289 0 0 0 0.002,0 H 255.9982 417.9064 c 28.63583,-0.001 55.74854,-13.04775 73.5957,-35.42578 l 0.002,-0.002 a 17.902289,17.902289 0 0 0 0.0195,-0.0274 c 13.24958,-16.62345 20.47356,-37.25519 20.47656,-58.50781 a 17.902289,17.902289 0 0 0 0,-0.002 V 153.78709 a 17.902289,17.902289 0 0 0 0,-0.002 17.902289,17.902289 0 0 0 0,-0.002 17.902289,17.902289 0 0 0 0,-0.002 17.902289,17.902289 0 0 0 0,-0.002 17.902289,17.902289 0 0 0 0,-0.002 17.902289,17.902289 0 0 0 0,-0.002 17.902289,17.902289 0 0 0 0,-0.002 17.902289,17.902289 0 0 0 0,-0.002 17.902289,17.902289 0 0 0 0,-0.002 17.902289,17.902289 0 0 0 0,-0.002 17.902289,17.902289 0 0 0 0,-0.002 c -0.0303,-24.68871 -9.81132,-48.37269 -27.16797,-65.917966 a 17.902289,17.902289 0 0 0 -0.041,-0.05078 l -0.0274,-0.0293 a 17.902289,17.902289 0 0 0 -0.39453,-0.404297 17.902289,17.902289 0 0 0 -0.0156,-0.01758 C 475.67164,78.679283 465.37601,71.793266 454.04884,67.07615 a 17.902289,17.902289 0 0 0 -0.36524,-0.146484 c -0.13394,-0.05235 -0.26795,-0.104425 -0.40234,-0.15625 l 0.33594,0.132812 c -5.41971,-2.217164 -11.03436,-3.923149 -16.77149,-5.097656 l 0.17578,0.03516 c -0.37842,-0.08143 -0.75709,-0.15953 -1.13671,-0.236328 a 17.902289,17.902289 0 0 0 -0.0996,-0.01953 C 429.94645,60.44065 424.01292,59.848113 418.06251,59.82029 a 17.902289,17.902289 0 0 0 -0.1543,-0.002 H 287.89649 224.09962 Z M 417.4004,95.613259 a 17.902289,17.902289 0 0 0 0.48633,0.0078 c 3.68824,0.01671 7.3656,0.38348 10.98437,1.09375 0.004,7.63e-4 0.008,0.0012 0.0117,0.002 0.2026,0.04135 0.40514,0.08343 0.60742,0.126953 a 17.902289,17.902289 0 0 0 0.17579,0.03711 c 3.55675,0.728143 7.03736,1.785961 10.39648,3.160158 a 17.902289,17.902289 0 0 0 0.26953,0.10742 c 1.37868,0.57557 2.7128,1.24065 4.03906,1.91797 l -81.9707,81.83593 -11.67578,11.65821 -94.72656,94.57031 -94.72657,-94.57031 -11.67578,-11.65821 -81.599599,-81.46484 c 1.149263,-0.60369 2.231814,-1.32931 3.419922,-1.85547 0.694892,-0.25333 1.389644,-0.50565 2.09375,-0.732418 a 17.902289,17.902289 0 0 0 1.09375,-0.392578 c 2.664283,-1.053379 5.406682,-1.901283 8.197265,-2.552734 3.769896,-0.802829 7.609931,-1.236959 11.464844,-1.283203 h 129.833998 63.79687 129.72657 z m 52.33399,31.720701 c 4.17843,8.12213 6.45342,17.17104 6.46484,26.47461 v 204.40821 c -4.8e-4,2.74899 -0.30763,5.46272 -0.69141,8.1582 l -84.96484,-146.91602 -4.78906,-8.2832 1.9414,-1.9375 z m -427.273435,0.19922 81.839835,81.70508 1.94141,1.9375 -4.78907,8.2832 -84.960925,146.91797 c -0.383958,-2.69609 -0.690926,-5.41051 -0.691407,-8.16015 V 153.94529 c 0.08279,-9.29805 2.423072,-18.32454 6.660157,-26.41211 z m 317.074215,109.81836 0.0176,0.0312 95.67383,165.4336 c -10.38381,8.65488 -23.53217,13.5618 -37.32226,13.5625 H 255.99806 94.091814 h -0.002 c -13.788631,-0.002 -26.933736,-4.90838 -37.316406,-13.5625 l 95.671862,-165.4336 0.0176,-0.0293 90.88867,90.74023 a 17.902289,17.902289 0 0 0 25.29297,0 z" />
  </g>
</svg>
